<?xml version="1.0" encoding="UTF-8" standalone="yes"?>
<!--
	dtee - run a program with standard output and standard error copied to files
	Copyright 2018  Simon Arlott

	This program is free software: you can redistribute it and/or modify
	it under the terms of the GNU General Public License as published by
	the Free Software Foundation, either version 3 of the License, or
	(at your option) any later version.

	This program is distributed in the hope that it will be useful,
	but WITHOUT ANY WARRANTY; without even the implied warranty of
	MERCHANTABILITY or FITNESS FOR A PARTICULAR PURPOSE.  See the
	GNU General Public License for more details.

	You should have received a copy of the GNU General Public License
	along with this program.  If not, see <https://www.gnu.org/licenses/>.
-->
<svg version="1.1" width="96" height="96" viewBox="0 0 48 48"
		xmlns="http://www.w3.org/2000/svg" xmlns:xlink="http://www.w3.org/1999/xlink">
	<style type="text/css">
	.stdout { fill: #00CC00; }
	.stderr { fill: #CC0000; }
	.line { stroke: #000000; stroke-width: 1; fill: none; }
	</style>
<!--
	<polyline class="line" points="0,0 48,0 48,48 0,48 0,0"/>
-->
	<polyline id="stdout-in" class="stdout" points="18,6 22,6 20,10 18,6"/>
	<polyline id="stderr-in" class="stderr" points="26,6 30,6 28,10 26,6"/>

	<polyline id="stdout-copy" class="stdout" points="6,22 2,24 6,26 6,22"/>
	<polyline id="stderr-copy" class="stderr" points="42,22 46,24 42,26 42,22"/>

	<polyline id="stdout-out" class="stdout" points="18,38 22,38 20,42 18,38"/>
	<polyline id="stderr-out" class="stderr" points="26,38 30,38 28,42 26,38"/>

	<polyline id="stdout-path" class="line" points="20,12 20,36"/>
	<polyline id="stderr-path" class="line" points="28,12 28,36"/>

	<polyline id="stdout-branch" class="line" points="8,24 20,24"/>
	<polyline id="stderr-branch" class="line" points="28,24 40,24"/>
</svg>
